<mxfile host="app.diagrams.net" modified="2023-06-14T09:59:32.494Z" agent="Mozilla/5.0 (Macintosh; Intel Mac OS X 10_15_7) AppleWebKit/537.36 (KHTML, like Gecko) Chrome/112.0.0.0 Safari/537.36" etag="ltOwKNbb1CxFkLkgul5F" version="21.3.8" type="github">
  <diagram name="Page-1" id="74b105a0-9070-1c63-61bc-23e55f88626e">
    <mxGraphModel dx="1500" dy="941" grid="1" gridSize="10" guides="1" tooltips="1" connect="1" arrows="1" fold="1" page="1" pageScale="1.5" pageWidth="583" pageHeight="413" background="none" math="0" shadow="0">
      <root>
        <mxCell id="0" style=";html=1;" />
        <mxCell id="1" style=";html=1;" parent="0" />
        <mxCell id="10b056a9c633e61c-30" value="AWS Asset Collector" style="text;strokeColor=none;fillColor=none;html=1;fontSize=24;fontStyle=1;verticalAlign=middle;align=center;resizeWidth=1;" parent="1" vertex="1">
          <mxGeometry x="80" y="40" width="720" height="40" as="geometry" />
        </mxCell>
        <mxCell id="Iz5Nk1WlDmDywEaJcW3o-11" style="edgeStyle=orthogonalEdgeStyle;rounded=0;orthogonalLoop=1;jettySize=auto;html=1;entryX=0;entryY=0.5;entryDx=0;entryDy=0;" edge="1" parent="1" source="Iz5Nk1WlDmDywEaJcW3o-2" target="Iz5Nk1WlDmDywEaJcW3o-4">
          <mxGeometry relative="1" as="geometry" />
        </mxCell>
        <mxCell id="Iz5Nk1WlDmDywEaJcW3o-2" value="&lt;font style=&quot;font-size: 14px;&quot;&gt;&lt;b&gt;Event&lt;/b&gt;&lt;br&gt;(hourly)&lt;/font&gt;" style="rounded=1;whiteSpace=wrap;html=1;fillColor=#fff2cc;strokeColor=#d6b656;" vertex="1" parent="1">
          <mxGeometry x="172" y="110" width="120" height="60" as="geometry" />
        </mxCell>
        <mxCell id="Iz5Nk1WlDmDywEaJcW3o-12" style="edgeStyle=orthogonalEdgeStyle;rounded=0;orthogonalLoop=1;jettySize=auto;html=1;entryX=0;entryY=0.5;entryDx=0;entryDy=0;" edge="1" parent="1" source="Iz5Nk1WlDmDywEaJcW3o-3" target="Iz5Nk1WlDmDywEaJcW3o-4">
          <mxGeometry relative="1" as="geometry" />
        </mxCell>
        <mxCell id="Iz5Nk1WlDmDywEaJcW3o-3" value="&lt;font style=&quot;font-size: 14px;&quot;&gt;&lt;b&gt;Event&lt;/b&gt;&lt;br&gt;(daily)&lt;/font&gt;" style="rounded=1;whiteSpace=wrap;html=1;fillColor=#fff2cc;strokeColor=#d6b656;" vertex="1" parent="1">
          <mxGeometry x="172" y="210" width="120" height="60" as="geometry" />
        </mxCell>
        <mxCell id="Iz5Nk1WlDmDywEaJcW3o-21" style="edgeStyle=orthogonalEdgeStyle;rounded=0;orthogonalLoop=1;jettySize=auto;html=1;exitX=1;exitY=0.25;exitDx=0;exitDy=0;entryX=0;entryY=0.25;entryDx=0;entryDy=0;" edge="1" parent="1" source="Iz5Nk1WlDmDywEaJcW3o-4" target="Iz5Nk1WlDmDywEaJcW3o-18">
          <mxGeometry relative="1" as="geometry" />
        </mxCell>
        <mxCell id="Iz5Nk1WlDmDywEaJcW3o-23" style="edgeStyle=orthogonalEdgeStyle;rounded=0;orthogonalLoop=1;jettySize=auto;html=1;exitX=0.5;exitY=1;exitDx=0;exitDy=0;entryX=0.5;entryY=0;entryDx=0;entryDy=0;" edge="1" parent="1" source="Iz5Nk1WlDmDywEaJcW3o-4" target="Iz5Nk1WlDmDywEaJcW3o-22">
          <mxGeometry relative="1" as="geometry" />
        </mxCell>
        <mxCell id="Iz5Nk1WlDmDywEaJcW3o-4" value="&lt;font style=&quot;font-size: 14px;&quot;&gt;&lt;b&gt;AWS Lambda Function&lt;/b&gt;&lt;br&gt;Trigger&lt;br&gt;&lt;/font&gt;" style="rounded=1;whiteSpace=wrap;html=1;arcSize=19;resizeWidth=1;fillColor=#d5e8d4;strokeColor=#82b366;" vertex="1" parent="1">
          <mxGeometry x="352" y="160" width="180" height="60" as="geometry" />
        </mxCell>
        <mxCell id="Iz5Nk1WlDmDywEaJcW3o-20" style="edgeStyle=orthogonalEdgeStyle;rounded=0;orthogonalLoop=1;jettySize=auto;html=1;exitX=0;exitY=0.75;exitDx=0;exitDy=0;entryX=1;entryY=0.75;entryDx=0;entryDy=0;" edge="1" parent="1" source="Iz5Nk1WlDmDywEaJcW3o-18" target="Iz5Nk1WlDmDywEaJcW3o-4">
          <mxGeometry relative="1" as="geometry" />
        </mxCell>
        <mxCell id="Iz5Nk1WlDmDywEaJcW3o-18" value="&lt;font style=&quot;font-size: 14px;&quot;&gt;&lt;b&gt;AWS Config&lt;/b&gt;&lt;br&gt;Account Map&lt;/font&gt;" style="rounded=1;whiteSpace=wrap;html=1;fillColor=#f5f5f5;fontColor=#333333;strokeColor=#666666;" vertex="1" parent="1">
          <mxGeometry x="582" y="160" width="120" height="60" as="geometry" />
        </mxCell>
        <mxCell id="Iz5Nk1WlDmDywEaJcW3o-26" style="edgeStyle=orthogonalEdgeStyle;rounded=0;orthogonalLoop=1;jettySize=auto;html=1;exitX=0.5;exitY=1;exitDx=0;exitDy=0;entryX=0.5;entryY=0;entryDx=0;entryDy=0;" edge="1" parent="1" source="Iz5Nk1WlDmDywEaJcW3o-22" target="Iz5Nk1WlDmDywEaJcW3o-25">
          <mxGeometry relative="1" as="geometry" />
        </mxCell>
        <mxCell id="Iz5Nk1WlDmDywEaJcW3o-22" value="&lt;b&gt;&lt;font style=&quot;font-size: 14px;&quot;&gt;SQS queue&lt;/font&gt;&lt;/b&gt;" style="rounded=1;whiteSpace=wrap;html=1;fillColor=#fff2cc;strokeColor=#d6b656;" vertex="1" parent="1">
          <mxGeometry x="382" y="250" width="120" height="60" as="geometry" />
        </mxCell>
        <mxCell id="Iz5Nk1WlDmDywEaJcW3o-28" style="edgeStyle=orthogonalEdgeStyle;rounded=0;orthogonalLoop=1;jettySize=auto;html=1;exitX=0.5;exitY=1;exitDx=0;exitDy=0;entryX=0.5;entryY=0;entryDx=0;entryDy=0;" edge="1" parent="1" source="Iz5Nk1WlDmDywEaJcW3o-25" target="Iz5Nk1WlDmDywEaJcW3o-27">
          <mxGeometry relative="1" as="geometry" />
        </mxCell>
        <mxCell id="Iz5Nk1WlDmDywEaJcW3o-25" value="&lt;font style=&quot;font-size: 14px;&quot;&gt;&lt;b&gt;AWS Lambda Function&lt;/b&gt;&lt;br&gt;Collector&lt;br&gt;&lt;/font&gt;" style="rounded=1;whiteSpace=wrap;html=1;arcSize=19;resizeWidth=1;fillColor=#d5e8d4;strokeColor=#82b366;" vertex="1" parent="1">
          <mxGeometry x="352" y="390" width="180" height="60" as="geometry" />
        </mxCell>
        <mxCell id="Iz5Nk1WlDmDywEaJcW3o-27" value="&lt;font style=&quot;font-size: 14px;&quot;&gt;&lt;b&gt;AWS S3 bucket&lt;/b&gt;&lt;br&gt;FNS&lt;/font&gt;" style="rounded=1;whiteSpace=wrap;html=1;fillColor=#dae8fc;strokeColor=#6c8ebf;" vertex="1" parent="1">
          <mxGeometry x="382" y="530" width="120" height="60" as="geometry" />
        </mxCell>
        <mxCell id="Iz5Nk1WlDmDywEaJcW3o-30" style="edgeStyle=orthogonalEdgeStyle;rounded=0;orthogonalLoop=1;jettySize=auto;html=1;entryX=0.124;entryY=-0.004;entryDx=0;entryDy=0;entryPerimeter=0;" edge="1" parent="1" source="Iz5Nk1WlDmDywEaJcW3o-29" target="Iz5Nk1WlDmDywEaJcW3o-25">
          <mxGeometry relative="1" as="geometry" />
        </mxCell>
        <mxCell id="Iz5Nk1WlDmDywEaJcW3o-29" value="&lt;b&gt;&lt;font style=&quot;font-size: 14px;&quot;&gt;AWS Config&lt;/font&gt;&lt;/b&gt;" style="rounded=1;whiteSpace=wrap;html=1;fillColor=#f5f5f5;fontColor=#333333;strokeColor=#666666;" vertex="1" parent="1">
          <mxGeometry x="172" y="310" width="120" height="60" as="geometry" />
        </mxCell>
        <mxCell id="Iz5Nk1WlDmDywEaJcW3o-32" style="edgeStyle=orthogonalEdgeStyle;rounded=0;orthogonalLoop=1;jettySize=auto;html=1;exitX=1;exitY=0.5;exitDx=0;exitDy=0;entryX=0;entryY=0.5;entryDx=0;entryDy=0;" edge="1" parent="1" source="Iz5Nk1WlDmDywEaJcW3o-31" target="Iz5Nk1WlDmDywEaJcW3o-25">
          <mxGeometry relative="1" as="geometry" />
        </mxCell>
        <mxCell id="Iz5Nk1WlDmDywEaJcW3o-31" value="&lt;b&gt;&lt;font style=&quot;font-size: 14px;&quot;&gt;Accounts data&lt;/font&gt;&lt;/b&gt;" style="rounded=1;whiteSpace=wrap;html=1;fillColor=#f5f5f5;fontColor=#333333;strokeColor=#666666;" vertex="1" parent="1">
          <mxGeometry x="172" y="390" width="120" height="60" as="geometry" />
        </mxCell>
        <mxCell id="Iz5Nk1WlDmDywEaJcW3o-35" style="edgeStyle=orthogonalEdgeStyle;rounded=0;orthogonalLoop=1;jettySize=auto;html=1;entryX=0.131;entryY=1.009;entryDx=0;entryDy=0;entryPerimeter=0;" edge="1" parent="1" source="Iz5Nk1WlDmDywEaJcW3o-33" target="Iz5Nk1WlDmDywEaJcW3o-25">
          <mxGeometry relative="1" as="geometry" />
        </mxCell>
        <mxCell id="Iz5Nk1WlDmDywEaJcW3o-33" value="&lt;b&gt;&lt;font style=&quot;font-size: 14px;&quot;&gt;RMS&lt;/font&gt;&lt;/b&gt;" style="rounded=1;whiteSpace=wrap;html=1;fillColor=#f5f5f5;fontColor=#333333;strokeColor=#666666;" vertex="1" parent="1">
          <mxGeometry x="172" y="470" width="120" height="60" as="geometry" />
        </mxCell>
        <mxCell id="Iz5Nk1WlDmDywEaJcW3o-37" style="edgeStyle=orthogonalEdgeStyle;rounded=0;orthogonalLoop=1;jettySize=auto;html=1;exitX=0;exitY=0.5;exitDx=0;exitDy=0;entryX=0.75;entryY=0;entryDx=0;entryDy=0;" edge="1" parent="1" source="Iz5Nk1WlDmDywEaJcW3o-36" target="Iz5Nk1WlDmDywEaJcW3o-25">
          <mxGeometry relative="1" as="geometry" />
        </mxCell>
        <mxCell id="Iz5Nk1WlDmDywEaJcW3o-36" value="&lt;font style=&quot;font-size: 14px;&quot;&gt;&lt;b&gt;AWS EC2&lt;/b&gt;&lt;br&gt;instances&lt;/font&gt;" style="rounded=1;whiteSpace=wrap;html=1;fillColor=#f5f5f5;fontColor=#333333;strokeColor=#666666;" vertex="1" parent="1">
          <mxGeometry x="582" y="340" width="120" height="60" as="geometry" />
        </mxCell>
        <mxCell id="Iz5Nk1WlDmDywEaJcW3o-39" style="edgeStyle=orthogonalEdgeStyle;rounded=0;orthogonalLoop=1;jettySize=auto;html=1;entryX=0.75;entryY=1;entryDx=0;entryDy=0;" edge="1" parent="1" source="Iz5Nk1WlDmDywEaJcW3o-38" target="Iz5Nk1WlDmDywEaJcW3o-25">
          <mxGeometry relative="1" as="geometry" />
        </mxCell>
        <mxCell id="Iz5Nk1WlDmDywEaJcW3o-38" value="&lt;b&gt;&lt;font style=&quot;font-size: 14px;&quot;&gt;Tanium&lt;/font&gt;&lt;/b&gt;" style="rounded=1;whiteSpace=wrap;html=1;fillColor=#f5f5f5;fontColor=#333333;strokeColor=#666666;" vertex="1" parent="1">
          <mxGeometry x="582" y="440" width="120" height="60" as="geometry" />
        </mxCell>
      </root>
    </mxGraphModel>
  </diagram>
</mxfile>
